<svg width="106" height="106" viewBox="0 0 106 106" fill="none" xmlns="http://www.w3.org/2000/svg">
<path d="M1.1323 27.0482C9.69302 11.0951 26.5685 0 42.3546 0C67.3515 0 88.4744 25.1419 88.4744 54.9045V61.4931H103.848C104.713 61.4931 105.495 62.0026 105.851 62.7888C106.206 63.575 106.061 64.5018 105.486 65.1475L70.3471 104.679C69.9342 105.149 69.3369 105.417 68.7088 105.417C68.0807 105.417 67.4833 105.149 67.066 104.679L31.9271 65.1475C31.3517 64.5018 31.2112 63.5794 31.5626 62.7888C31.9184 61.9982 32.7002 61.4931 33.5655 61.4931H48.9915C48.9871 61.2822 48.9783 61.067 48.9739 60.8518C48.9563 60.3335 48.9432 59.8152 48.9432 59.2969C48.9432 40.9456 39.0867 21.9618 22.589 21.9618C16.5144 21.9618 8.83211 26.2356 4.26405 30.2063C3.838 30.5752 3.25821 30.7992 2.77944 30.7465C1.7121 30.808 0.539337 29.7802 0.539337 28.5503C0.539337 27.9706 0.763344 27.4391 1.1323 27.0482Z" fill="#181837"/>
</svg>
